<?xml version="1.0"?>
<svg width="18" height="48" xmlns="http://www.w3.org/2000/svg" xmlns:xlink="http://www.w3.org/1999/xlink">

    <!-- Стрелки промотки для блока слайдшоу (ячейка спрайта: 9x16) -->
    <defs>
        <!-- Стрелка вправо -->
        <g id="next">
            <path d="m6.8022,7.95358l-6.48074,-6.38251c-0.39273,-0.39276 -0.39273,-0.88372 0,-1.17832c0.39279,-0.39276 0.88375,-0.39276 1.27655,0l7.0698,6.97167c0.19645,0.19639 0.29463,0.39276 0.29463,0.58917s-0.09817,0.49096 -0.29463,0.68736l-7.0698,6.97164c-0.39279,0.39279 -0.88375,0.39279 -1.27655,0c-0.39273,-0.39276 -0.39273,-0.88372 0,-1.17829l6.48074,-6.48071l0,0l0,-0.00001z"/>
        </g>
        <!-- Стрелка влево -->
        <g id="prev">
            <use xlink:href="#next" x="-9" y="0" transform="scale(-1, 1)"/>
        </g>
    </defs>

    <!-- Стрелка влево обычная для "широкой" вариации -->
    <use xlink:href="#prev" x="0" y="0" fill="#c7c7cc"/>

    <!-- Стрелка вправо обычная для "широкой" вариации -->
    <use xlink:href="#next" x="9" y="0" fill="#c7c7cc"/>

    <!-- Стрелка влево наведённая -->
    <use xlink:href="#prev" x="0" y="16" fill="#ec174f"/>

    <!-- Стрелка вправо наведённая -->
    <use xlink:href="#next" x="9" y="16" fill="#ec174f"/>

    <!-- Стрелка влево обычная для "узкой" вариации -->
    <use xlink:href="#prev" x="0" y="32" fill="#ffffff"/>

    <!-- Стрелка вправо обычная для "узкой" вариации -->
    <use xlink:href="#next" x="9" y="32" fill="#ffffff"/>

</svg>
