<?xml version="1.0"?>
<svg width="38" height="38" xmlns="http://www.w3.org/2000/svg" xmlns:xlink="http://www.w3.org/1999/xlink" version="1.1">

    <!-- Иконка "Вопроизведение", накладываемая поверх постера (ячейка спрайта: 38x38) -->
    <defs>
        <!-- Шаблон для создания иконки нужного цвета -->
        <g id="play">
            <path d="m18.97866,3.96675c4.09055,0 7.94156,1.57541 10.83442,4.43143c2.87444,2.83758 4.45906,6.61489 4.45906,10.63174s-1.58463,7.79414 -4.45906,10.64095c-2.89286,2.85601 -6.73466,4.43142 -10.83442,4.43142s-7.94156,-1.57541 -10.83442,-4.43142c-2.87444,-2.8468 -4.45906,-6.6241 -4.45906,-10.64095s1.58463,-7.79415 4.45906,-10.64095c2.89286,-2.85601 6.74388,-4.42221 10.83442,-4.42221m0,-3.68518c-10.48433,0 -18.97866,8.39299 -18.97866,18.74834c0,10.35535 8.49434,18.74834 18.97866,18.74834c10.48433,0 18.97866,-8.39299 18.97866,-18.74834c0,-10.35535 -8.49434,-18.74834 -18.97866,-18.74834l0,0zm-4.56041,28.07185l0,-18.18636l14.82363,9.09318l-14.82363,9.09318z"/>
        </g>
    </defs>

    <!-- Наведённое состояние -->
    <use xlink:href="#play" x="0" y="0" fill="#ec174f"/>

</svg>
