<svg xmlns="http://www.w3.org/2000/svg" xmlns:xlink="http://www.w3.org/1999/xlink" width="320" height="180" viewBox="0 0 320 180">
  <defs>
    <rect id="splash_est+tvod-a" width="320" height="180"/>
    <path id="splash_est+tvod-d" d="M26.6723765,37.3709959 L188.364218,37.3709959 L188.364218,173.029794 L26.6723765,173.029794 L26.6723765,37.3709959 Z M107.241795,137.193006 L155.411037,78.2873818 L82.288,66.6929985 L107.241795,137.193006 Z"/>
    <filter id="splash_est+tvod-c" width="107.4%" height="108.8%" x="-3.7%" y="-4.4%" filterUnits="objectBoundingBox">
      <feOffset in="SourceAlpha" result="shadowOffsetOuter1"/>
      <feGaussianBlur in="shadowOffsetOuter1" result="shadowBlurOuter1" stdDeviation="2"/>
      <feColorMatrix in="shadowBlurOuter1" values="0 0 0 0 0   0 0 0 0 0   0 0 0 0 0  0 0 0 0.3 0"/>
    </filter>
    <path id="splash_est+tvod-f" d="M24.6350222,24.8342518 L196.884063,24.8342518 L196.884063,175.088065 L24.6350222,175.088065 L24.6350222,24.8342518 Z M119.704752,155.492994 L163.788,59.6178744 L61.1879939,68.6581855 L119.704752,155.492994 Z"/>
    <filter id="splash_est+tvod-e" width="107%" height="108%" x="-3.5%" y="-4%" filterUnits="objectBoundingBox">
      <feOffset in="SourceAlpha" result="shadowOffsetOuter1"/>
      <feGaussianBlur in="shadowOffsetOuter1" result="shadowBlurOuter1" stdDeviation="2"/>
      <feColorMatrix in="shadowBlurOuter1" values="0 0 0 0 0   0 0 0 0 0   0 0 0 0 0  0 0 0 0.44 0"/>
    </filter>
    <path id="splash_est+tvod-h" d="M10.7439705,11.5490454 L207.811691,11.5490454 L207.811691,187.593 L10.7439705,187.593 L10.7439705,11.5490454 Z M138.273224,173.093 L168.687994,37.6299556 L36.1382042,75.8930031 L138.273224,173.093 Z"/>
    <filter id="splash_est+tvod-g" width="106.1%" height="106.8%" x="-3%" y="-3.4%" filterUnits="objectBoundingBox">
      <feOffset in="SourceAlpha" result="shadowOffsetOuter1"/>
      <feGaussianBlur in="shadowOffsetOuter1" result="shadowBlurOuter1" stdDeviation="2"/>
      <feColorMatrix in="shadowBlurOuter1" values="0 0 0 0 0   0 0 0 0 0   0 0 0 0 0  0 0 0 0.6 0"/>
    </filter>
    <path id="splash_est+tvod-j" d="M0.288,0.593 L228.288,0.593 L228.288,187.593 L0.288,187.593 L0.288,0.593 Z M159.182041,187.457491 L170.11848,14.9399727 L13.1116259,86.3613719 L159.182041,187.457491 Z"/>
    <filter id="splash_est+tvod-i" width="105.3%" height="106.4%" x="-2.6%" y="-3.2%" filterUnits="objectBoundingBox">
      <feOffset in="SourceAlpha" result="shadowOffsetOuter1"/>
      <feGaussianBlur in="shadowOffsetOuter1" result="shadowBlurOuter1" stdDeviation="2"/>
      <feColorMatrix in="shadowBlurOuter1" values="0 0 0 0 0   0 0 0 0 0   0 0 0 0 0  0 0 0 0.6 0"/>
    </filter>
  </defs>
  <g fill="none" fill-rule="evenodd">
    <mask id="splash_est+tvod-b" fill="#fff">
      <use xlink:href="#splash_est+tvod-a"/>
    </mask>
    <g fill-rule="nonzero" mask="url(#splash_est+tvod-b)">
      <g transform="translate(215.712 -7.593)">
        <rect width="150.764" height="132.291" x="31.118" y="38.494" fill="#00A5FF"/>
        <g>
          <use fill="#000" filter="url(#splash_est+tvod-c)" xlink:href="#splash_est+tvod-d"/>
          <use fill="#FF829B" fill-rule="evenodd" xlink:href="#splash_est+tvod-d"/>
        </g>
        <g>
          <use fill="#000" filter="url(#splash_est+tvod-e)" xlink:href="#splash_est+tvod-f"/>
          <use fill="#A05ADC" fill-rule="evenodd" xlink:href="#splash_est+tvod-f"/>
        </g>
        <g>
          <use fill="#000" filter="url(#splash_est+tvod-g)" xlink:href="#splash_est+tvod-h"/>
          <use fill="#282350" fill-rule="evenodd" xlink:href="#splash_est+tvod-h"/>
        </g>
        <g>
          <use fill="#000" filter="url(#splash_est+tvod-i)" xlink:href="#splash_est+tvod-j"/>
          <use fill="#EC174F" fill-rule="evenodd" xlink:href="#splash_est+tvod-j"/>
        </g>
      </g>
    </g>
    <rect width="220" height="180" fill="#EC174F" fill-rule="nonzero"/>
    <path fill="#FFF" fill-rule="nonzero" d="M43.7332287,122.485764 L42.3459329,122.485764 L41.4652338,127.645133 L40,127.645133 L41.9718306,116.158831 L43.4292706,116.158831 L42.5641592,121.223533 L43.6319093,121.223533 L48.3471565,116.158831 L50.2722243,116.158831 L45.0425866,121.799426 L48.5030324,127.645133 L46.8351599,127.645133 L43.7332287,122.485764 Z M58.8220195,116.158831 L60.3340161,116.158831 L58.3621855,127.645133 L56.9047454,127.645133 L58.4089482,118.888405 L51.5426132,127.645133 L50.0228228,127.645133 L51.9946534,116.158831 L53.4598872,116.158831 L51.9556844,124.915558 L58.8220195,116.158831 Z M69.546284,127.645133 L68.0810502,127.645133 L68.9929244,122.335874 L63.4515348,122.335874 L62.5396606,127.645133 L61.0744268,127.645133 L63.0462574,116.158831 L64.5114912,116.158831 L63.6619673,121.09731 L69.1955631,121.09731 L70.045087,116.158831 L71.5181146,116.158831 L69.546284,127.645133 Z M76.3502687,127.802912 C75.6280398,127.787134 75.0006455,127.61095 74.4680667,127.274352 C73.9354879,126.937755 73.5159261,126.442072 73.2093685,125.787286 C72.902811,125.132501 72.7339471,124.397522 72.7027717,123.582326 C72.6715963,122.945949 72.7417398,122.159692 72.9132042,121.223533 C73.0846687,120.287373 73.38083,119.443265 73.8016971,118.691181 C74.2225642,117.939098 74.7343518,117.336915 75.3370751,116.884614 C76.1528299,116.274532 77.0828804,115.980015 78.1272544,116.001052 C79.233979,116.022089 80.1068756,116.409958 80.7459701,117.164671 C81.3850646,117.919383 81.7279883,118.940992 81.7747513,120.229526 C81.7955348,120.781755 81.7396799,121.483863 81.6071846,122.335874 C81.4746895,123.187884 81.23828,123.9794 80.8979492,124.710446 C80.5576183,125.441492 80.1250669,126.054194 79.600282,126.548569 C78.6858052,127.411098 77.6024783,127.829209 76.3502687,127.802912 Z M80.3328989,120.592417 C80.3640743,119.55633 80.1848187,118.752981 79.7951269,118.182345 C79.405435,117.611708 78.826102,117.315875 78.0571102,117.294839 C77.3608608,117.273802 76.7386623,117.463134 76.1904959,117.862843 C75.6423293,118.262551 75.1928916,118.86079 74.8421689,119.657578 C74.4914464,120.454364 74.2693254,121.462824 74.1757993,122.682988 L74.1524179,123.195769 C74.1212426,124.226595 74.3030961,125.03389 74.6979837,125.617675 C75.0928714,126.201459 75.6670087,126.503866 76.4204128,126.524903 C77.4024361,126.5512 78.2168798,126.192257 78.8637681,125.448062 C79.5106565,124.703868 79.9406101,123.658593 80.1536415,122.312207 C80.2575594,121.649533 80.3173112,121.076275 80.3328989,120.592417 Z M86.8251317,127.645133 L88.7969623,116.158831 L92.1249136,116.166719 C93.2835971,116.166719 94.1512979,116.429682 94.7280417,116.955614 C95.3047856,117.481546 95.5567825,118.215211 95.48404,119.156629 C95.390514,120.255828 94.7072646,121.084158 93.4342714,121.641647 C93.9434687,121.841501 94.324062,122.183351 94.5760626,122.667209 C94.8280634,123.151067 94.9306806,123.68488 94.8839177,124.268665 C94.8059793,125.304752 94.3955101,126.126508 93.6524977,126.73396 C92.9094854,127.341412 91.9482601,127.645133 90.7687929,127.645133 L86.8251317,127.645133 Z M89.2100335,122.272763 L88.500798,126.406569 L90.8155557,126.414458 C91.5221968,126.414458 92.1145194,126.222496 92.5925414,125.838565 C93.0705633,125.454634 93.3485393,124.936599 93.4264776,124.284443 C93.4992201,123.663843 93.392706,123.179993 93.106932,122.832877 C92.8211579,122.485762 92.3717202,122.301688 91.7586051,122.280651 L89.2100335,122.272763 Z M89.420466,121.057864 L91.532585,121.065754 C92.1924631,121.065754 92.749714,120.894828 93.2043544,120.552972 C93.6589949,120.211116 93.9252802,119.740414 94.0032186,119.140851 C94.0707652,118.583363 93.962952,118.162623 93.6797761,117.87862 C93.3966,117.594617 92.9276779,117.439469 92.2729957,117.413173 L90.0439698,117.405284 L89.420466,121.057864 Z M109.318029,116.158831 L110.830026,116.158831 L108.858196,127.645133 L107.400755,127.645133 L108.904958,118.888405 L102.038623,127.645133 L100.518832,127.645133 L102.490663,116.158831 L103.955897,116.158831 L102.451694,124.915558 L109.318029,116.158831 Z M120.042294,127.645133 L118.57706,127.645133 L119.488935,122.335874 L113.947545,122.335874 L113.035671,127.645133 L111.570437,127.645133 L113.542267,116.158831 L115.007501,116.158831 L114.157978,121.09731 L119.691573,121.09731 L120.541097,116.158831 L122.014125,116.158831 L120.042294,127.645133 Z M132.052535,117.405284 L128.521945,117.405284 L126.76834,127.645133 L125.310901,127.645133 L127.064505,117.405284 L123.533915,117.405284 L123.752141,116.158831 L132.270762,116.158831 L132.052535,117.405284 Z M139.14489,122.335874 L134.375086,122.335874 L133.673645,126.406569 L139.222829,126.406569 L139.004602,127.645133 L131.997978,127.645133 L133.969809,116.158831 L140.898494,116.158831 L140.680268,117.405284 L135.216816,117.405284 L134.585519,121.09731 L139.355323,121.09731 L139.14489,122.335874 Z M143.111933,123.148435 L142.340347,127.645133 L140.875114,127.645133 L142.846944,116.158831 L146.634729,116.166719 C147.803804,116.166719 148.705278,116.480959 149.339176,117.109448 C149.973075,117.737937 150.245855,118.572842 150.157525,119.614188 C150.064,120.713386 149.631448,121.578532 148.859858,122.209651 C148.088268,122.84077 147.071188,123.156324 145.808586,123.156324 L143.111933,123.148435 Z M143.322365,121.90987 L145.847555,121.91776 C146.642526,121.91776 147.294601,121.715279 147.803798,121.31031 C148.312996,120.905343 148.611755,120.342604 148.700086,119.622078 C148.783219,118.97518 148.650726,118.450571 148.302601,118.048233 C147.954477,117.645894 147.447886,117.43421 146.782811,117.413173 L144.093951,117.405284 L143.322365,121.90987 Z M159.190535,127.645133 L157.725301,127.645133 L158.637176,122.335874 L153.095787,122.335874 L152.183912,127.645133 L150.718679,127.645133 L152.69051,116.158831 L154.155743,116.158831 L153.306219,121.09731 L158.839815,121.09731 L159.689338,116.158831 L161.162366,116.158831 L159.190535,127.645133 Z M168.979544,122.335874 L164.20974,122.335874 L163.5083,126.406569 L169.057483,126.406569 L168.839257,127.645133 L161.832633,127.645133 L163.804463,116.158831 L170.733149,116.158831 L170.514923,117.405284 L165.05147,117.405284 L164.420173,121.09731 L169.189977,121.09731 L168.979544,122.335874 Z M180.077911,117.405284 L176.547321,117.405284 L174.793718,127.645133 L173.336277,127.645133 L175.089881,117.405284 L171.559291,117.405284 L171.777518,116.158831 L180.296137,116.158831 L180.077911,117.405284 Z M187.170267,122.335874 L182.400463,122.335874 L181.699021,126.406569 L187.248204,126.406569 L187.029978,127.645133 L180.023355,127.645133 L181.995186,116.158831 L188.923871,116.158831 L188.705645,117.405284 L183.242193,117.405284 L182.610895,121.09731 L187.380699,121.09731 L187.170267,122.335874 Z M203.663313,122.50943 L193.550236,122.50943 L193.886923,121.3182 L204,121.3182 L203.663313,122.50943 Z M41.8393361,144.188247 C41.8757073,145.066555 42.077045,145.710812 42.4433554,146.121039 C42.8096656,146.531266 43.3617207,146.746896 44.0995372,146.767933 C44.9932303,146.794229 45.7466232,146.460267 46.3597383,145.766036 C46.9728533,145.071806 47.4222911,144.059402 47.7080651,142.728793 L43.3201575,142.736682 L43.5383838,141.49023 L47.8483535,141.49023 C47.8951164,141.195707 47.9236935,140.8933 47.9340852,140.583001 C47.9496729,139.610027 47.7587267,138.847436 47.3612411,138.295207 C46.9637556,137.742978 46.3883193,137.456349 45.6349151,137.435312 C44.8919028,137.409016 44.2645084,137.611497 43.7527132,138.042761 C43.240918,138.474025 42.8577268,139.139319 42.6031282,140.038664 L41.1456881,140.046552 C41.3846991,138.836908 41.915971,137.884985 42.7395197,137.190755 C43.5630682,136.496525 44.5463758,136.165192 45.6894717,136.196748 C46.4168964,136.212526 47.0481877,136.384766 47.5833644,136.713474 C48.1185411,137.042181 48.5407009,137.516828 48.8498564,138.137428 C49.1590118,138.758028 49.3317726,139.457508 49.3681439,140.235887 C49.3993192,140.83545 49.3174851,141.704539 49.1226392,142.843183 C48.9277934,143.981826 48.5459011,144.977138 47.9769512,145.829148 C47.4080011,146.681159 46.7078653,147.285971 45.8765229,147.643606 C45.299779,147.896053 44.6866731,148.014386 44.0371868,147.998608 C42.9304621,147.977571 42.0536687,147.63309 41.4067803,146.965156 C40.759892,146.297222 40.4156694,145.371595 40.3741023,144.188247 L41.8393361,144.188247 Z M59.8118317,137.60098 L56.2812417,137.60098 L54.5276374,147.840829 L53.0701974,147.840829 L54.8238017,137.60098 L51.2932117,137.60098 L51.511438,136.354527 L60.030058,136.354527 L59.8118317,137.60098 Z M63.9191626,147.998608 C63.1969338,147.98283 62.5695395,147.806646 62.0369607,147.470048 C61.5043819,147.133451 61.08482,146.637768 60.7782625,145.982982 C60.471705,145.328198 60.3028411,144.593218 60.2716657,143.778022 C60.2404903,143.141645 60.3106338,142.355388 60.4820982,141.419229 C60.6535626,140.483069 60.9497239,139.638961 61.3705911,138.886877 C61.7914582,138.134795 62.3032457,137.532611 62.905969,137.08031 C63.7217238,136.470228 64.6517744,136.175711 65.6961483,136.196748 C66.802873,136.217785 67.6757695,136.605654 68.3148641,137.360367 C68.9539586,138.11508 69.2968823,139.136688 69.3436453,140.425222 C69.3644288,140.977451 69.3085738,141.679559 69.1760787,142.53157 C69.0435834,143.38358 68.807174,144.175096 68.4668431,144.906142 C68.1265123,145.637188 67.6939609,146.24989 67.1691759,146.744265 C66.2546991,147.606794 65.1713723,148.024905 63.9191626,147.998608 Z M67.9017928,140.788113 C67.9329682,139.752027 67.7537127,138.948677 67.3640209,138.378041 C66.974329,137.807404 66.394996,137.511572 65.6260042,137.490535 C64.9297548,137.469498 64.3075563,137.65883 63.7593897,138.058539 C63.2112233,138.458247 62.7617855,139.056486 62.411063,139.853274 C62.0603403,140.65006 61.8382194,141.65852 61.7446933,142.878684 L61.7213119,143.391465 C61.6901365,144.422291 61.87199,145.229586 62.2668777,145.813371 C62.6617654,146.397155 63.2359027,146.699562 63.9893068,146.720599 C64.9713301,146.746896 65.7857737,146.387953 66.4326622,145.643758 C67.0795505,144.899564 67.509504,143.854289 67.7225355,142.507903 C67.8264533,141.845229 67.8862051,141.271971 67.9017928,140.788113 Z M75.7033835,147.840829 L74.3005001,147.840829 L75.7657339,139.304992 L77.1686173,139.304992 L75.7033835,147.840829 Z M76.8646593,136.188859 C77.1036702,136.178341 77.3024101,136.250655 77.4608847,136.405805 C77.6193594,136.560955 77.6985955,136.764751 77.6985955,137.017198 C77.6933996,137.264386 77.6141635,137.466867 77.4608847,137.624646 C77.3076059,137.782426 77.1088661,137.866575 76.8646593,137.877092 C76.6204524,137.887611 76.4204136,137.816611 76.2645369,137.664091 C76.1086602,137.511572 76.0333209,137.31172 76.0385168,137.064532 C76.0437127,136.817343 76.1216499,136.612233 76.2723307,136.449194 C76.4230115,136.286155 76.6204524,136.199377 76.8646593,136.188859 Z M81.0733096,145.844927 L84.1128904,139.304992 L85.6015056,139.304992 L81.3538863,147.840829 L80.2783423,147.840829 L78.6260574,139.304992 L80.0133532,139.304992 L81.0733096,145.844927 Z M87.1135022,147.840829 L85.7106187,147.840829 L87.1758525,139.304992 L88.578736,139.304992 L87.1135022,147.840829 Z M88.2747779,136.188859 C88.5137888,136.178341 88.7125287,136.250655 88.8710033,136.405805 C89.029478,136.560955 89.1087142,136.764751 89.1087142,137.017198 C89.1035182,137.264386 89.0242822,137.466867 88.8710033,137.624646 C88.7177245,137.782426 88.5189848,137.866575 88.2747779,137.877092 C88.030571,137.887611 87.8305323,137.816611 87.6746555,137.664091 C87.5187788,137.511572 87.4434395,137.31172 87.4486354,137.064532 C87.4538314,136.817343 87.5317685,136.612233 87.6824493,136.449194 C87.8331301,136.286155 88.030571,136.199377 88.2747779,136.188859 Z"/>
    <g fill="#FFF" fill-rule="nonzero" transform="translate(40 32)">
      <path d="M1,57.9112051 C1,57.4629998 1.09192508,57.0599031 1.27577798,56.7019028 C1.45963089,56.3439024 1.7155503,56.0676542 2.04354389,55.8731501 C2.37153748,55.6786459 2.74585639,55.5813953 3.16651184,55.5813953 C3.81661573,55.5813953 4.34242716,55.797038 4.74396192,56.2283299 C5.14549667,56.6596216 5.34626103,57.2332593 5.34626103,57.9492601 L5.34626103,58.0042283 C5.34626103,58.4496146 5.25727756,58.8491878 5.07930795,59.2029598 C4.90133833,59.5567319 4.64688972,59.8322752 4.31595448,60.0295983 C3.98501925,60.2269213 3.60481713,60.3255813 3.17533674,60.3255813 C2.52817451,60.3255813 2.00383387,60.1099387 1.60229911,59.6786469 C1.20076437,59.2473551 1,58.6765363 1,57.9661733 L1,57.9112051 Z M1.82071528,58.0042283 C1.82071528,58.5116304 1.94352718,58.9189555 2.18915467,59.2262156 C2.43478216,59.5334758 2.76350623,59.6871036 3.17533674,59.6871036 C3.59010891,59.6871036 3.91956837,59.5313617 4.16372504,59.2198731 C4.4078817,58.9083846 4.5299582,58.4721663 4.5299582,57.9112051 C4.5299582,57.4094408 4.4056755,57.0028204 4.15710636,56.6913319 C3.90853723,56.3798434 3.57834236,56.2241015 3.16651184,56.2241015 C2.76350627,56.2241015 2.4384592,56.3777293 2.19136089,56.6849894 C1.94426259,56.9922495 1.82071528,57.4319915 1.82071528,58.0042283 L1.82071528,58.0042283 Z M10.2705527,60.2410148 L9.45424989,60.2410148 L9.45424989,58.2875265 L7.26126336,58.2875265 L7.26126336,60.2410148 L6.44054808,60.2410148 L6.44054808,55.6659619 L7.26126336,55.6659619 L7.26126336,57.6490486 L9.45424989,57.6490486 L9.45424989,55.6659619 L10.2705527,55.6659619 L10.2705527,60.2410148 Z M15.4948909,55.6659619 L15.4948909,60.2410148 L14.6741756,60.2410148 L14.6741756,56.3128964 L13.0503948,56.3128964 L12.9533209,58.0253699 C12.9003714,58.8118432 12.7628514,59.3742055 12.5407571,59.7124735 C12.3186628,60.0507416 11.9664058,60.2269203 11.4839759,60.2410148 L11.1574547,60.2410148 L11.1574547,59.551797 L11.3913144,59.5348837 C11.6560626,59.5066947 11.845796,59.3601141 11.9605202,59.0951374 C12.0752444,58.8301608 12.1487845,58.3396794 12.1811426,57.6236786 L12.2693915,55.6659619 L15.4948909,55.6659619 Z M19.7529029,60.2410148 C19.7058365,60.15081 19.6675958,59.9901351 19.6381793,59.7589851 C19.2587069,60.1367179 18.8057001,60.3255813 18.2791454,60.3255813 C17.8084819,60.3255813 17.4223966,60.198028 17.1208779,59.9429175 C16.8193591,59.687807 16.668602,59.3643431 16.668602,58.9725158 C16.668602,58.4961216 16.8575999,58.1261464 17.2356015,57.8625793 C17.6136031,57.5990121 18.1452977,57.4672304 18.8307013,57.4672304 L19.624942,57.4672304 L19.624942,57.1078224 C19.624942,56.8343891 19.5396355,56.6166323 19.36902,56.4545454 C19.1984044,56.2924587 18.9468975,56.2114165 18.6144914,56.2114165 C18.3232684,56.2114165 18.0791154,56.281888 17.8820251,56.422833 C17.6849348,56.563778 17.5863911,56.7343189 17.5863911,56.9344608 L16.7656758,56.9344608 C16.7656758,56.7061299 16.8502469,56.4855543 17.0193916,56.2727273 C17.1885362,56.0599003 17.4179812,55.8914735 17.7077334,55.7674418 C17.9974855,55.6434103 18.315914,55.5813953 18.6630283,55.5813953 C19.2131162,55.5813953 19.644061,55.713177 19.9558755,55.9767442 C20.26769,56.2403113 20.4294782,56.6032394 20.4412448,57.0655391 L20.4412448,59.1712473 C20.4412448,59.5912635 20.4971352,59.9252982 20.6089178,60.1733614 L20.6089178,60.2410148 L19.7529029,60.2410148 Z M18.3982815,59.6448203 C18.6542047,59.6448203 18.8968869,59.581396 19.1263353,59.4545455 C19.3557838,59.3276949 19.5219843,59.1627917 19.624942,58.9598308 L19.624942,58.0211417 L18.985137,58.0211417 C17.9849772,58.0211417 17.4849048,58.3016181 17.4849048,58.8625793 C17.4849048,59.1078236 17.5702112,59.2995059 17.7408267,59.4376321 C17.9114423,59.5757583 18.1305916,59.6448203 18.3982815,59.6448203 L18.3982815,59.6448203 Z M24.809568,55.6659619 L25.6258708,55.6659619 L25.6258708,60.2410148 L24.809568,60.2410148 L24.809568,56.9048626 L22.6077567,60.2410148 L21.7914538,60.2410148 L21.7914538,55.6659619 L22.6077567,55.6659619 L22.6077567,59.0063424 L24.809568,55.6659619 Z M25.0301904,54 C25.0301904,54.341087 24.9088493,54.6152209 24.6661635,54.8224102 C24.4234777,55.0295994 24.1050492,55.1331924 23.7108686,55.1331924 C23.3166879,55.1331924 22.997524,55.0288946 22.7533674,54.820296 C22.5092107,54.6116974 22.3871342,54.3382681 22.3871342,54 L23.0534139,54 C23.0534139,54.1973231 23.1093043,54.3516555 23.2210869,54.4630022 C23.3328694,54.5743487 23.4961284,54.6300212 23.7108686,54.6300212 C23.9167838,54.6300212 24.0778366,54.5750534 24.1940316,54.4651163 C24.3102266,54.3551792 24.3683232,54.2001419 24.3683232,54 L25.0301904,54 Z M30.8369717,60.2410148 L30.0206688,60.2410148 L30.0206688,58.2875265 L27.8276823,58.2875265 L27.8276823,60.2410148 L27.006967,60.2410148 L27.006967,55.6659619 L27.8276823,55.6659619 L27.8276823,57.6490486 L30.0206688,57.6490486 L30.0206688,55.6659619 L30.8369717,55.6659619 L30.8369717,60.2410148 Z M33.8462611,57.9450317 L31.6929865,57.9450317 L31.6929865,57.3065539 L33.8462611,57.3065539 L33.8462611,57.9450317 Z M36.1274965,58.2917547 L35.531816,58.2917547 L35.531816,60.2410148 L34.7111008,60.2410148 L34.7111008,55.6659619 L35.531816,55.6659619 L35.531816,57.602537 L36.0657223,57.602537 L37.6718532,55.6659619 L38.6602415,55.6659619 L36.7717139,57.8646934 L38.8190896,60.2410148 L37.7821645,60.2410148 L36.1274965,58.2917547 Z M42.6093823,55.6659619 L43.4256851,55.6659619 L43.4256851,60.2410148 L42.6093823,60.2410148 L42.6093823,56.9048626 L40.4075708,60.2410148 L39.591268,60.2410148 L39.591268,55.6659619 L40.4075708,55.6659619 L40.4075708,59.0063424 L42.6093823,55.6659619 Z M48.6367859,60.2410148 L47.820483,60.2410148 L47.820483,58.2875265 L45.6274966,58.2875265 L45.6274966,60.2410148 L44.8067813,60.2410148 L44.8067813,55.6659619 L45.6274966,55.6659619 L45.6274966,57.6490486 L47.820483,57.6490486 L47.820483,55.6659619 L48.6367859,55.6659619 L48.6367859,60.2410148 Z M49.731073,57.9112051 C49.731073,57.4629998 49.822998,57.0599031 50.0068509,56.7019028 C50.1907038,56.3439024 50.4466232,56.0676542 50.7746168,55.8731501 C51.1026104,55.6786459 51.4769294,55.5813953 51.8975847,55.5813953 C52.5476887,55.5813953 53.0735001,55.797038 53.4750349,56.2283299 C53.8765696,56.6596216 54.077334,57.2332593 54.077334,57.9492601 L54.077334,58.0042283 C54.077334,58.4496146 53.9883504,58.8491878 53.8103809,59.2029598 C53.6324112,59.5567319 53.3779626,59.8322752 53.0470274,60.0295983 C52.7160922,60.2269213 52.3358901,60.3255813 51.9064097,60.3255813 C51.2592474,60.3255813 50.7349068,60.1099387 50.333372,59.6786469 C49.9318372,59.2473551 49.731073,58.6765363 49.731073,57.9661733 L49.731073,57.9112051 Z M50.5517882,58.0042283 C50.5517882,58.5116304 50.6746001,58.9189555 50.9202276,59.2262156 C51.1658551,59.5334758 51.4945791,59.6871036 51.9064097,59.6871036 C52.3211818,59.6871036 52.6506413,59.5313617 52.894798,59.2198731 C53.1389546,58.9083846 53.2610312,58.4721663 53.2610312,57.9112051 C53.2610312,57.4094408 53.1367484,57.0028204 52.8881793,56.6913319 C52.6396102,56.3798434 52.3094153,56.2241015 51.8975847,56.2241015 C51.4945792,56.2241015 51.1695321,56.3777293 50.9224339,56.6849894 C50.6753355,56.9922495 50.5517882,57.4319915 50.5517882,58.0042283 L50.5517882,58.0042283 Z M58.5515559,56.3002114 L56.9498374,56.3002114 L56.9498374,60.2410148 L56.1335346,60.2410148 L56.1335346,56.3002114 L54.5627032,56.3002114 L54.5627032,55.6659619 L58.5515559,55.6659619 L58.5515559,56.3002114 Z M60.9739898,60.3255813 C60.3268276,60.3255813 59.8002807,60.1219188 59.3943335,59.7145877 C58.9883862,59.3072566 58.7854157,58.7625122 58.7854157,58.0803382 L58.7854157,57.9365751 C58.7854157,57.482732 58.87587,57.0775212 59.0567812,56.7209302 C59.2376925,56.3643393 59.4906703,56.0852723 59.8157223,55.883721 C60.1407742,55.6821696 60.4930311,55.5813953 60.8725035,55.5813953 C61.4931909,55.5813953 61.9756137,55.777306 62.3197864,56.1691332 C62.663959,56.5609604 62.8360428,57.1219132 62.8360428,57.8520084 L62.8360428,58.1775898 L59.6017185,58.1775898 C59.6134851,58.6286139 59.751005,58.9929514 60.0142825,59.2706131 C60.2775598,59.5482748 60.612167,59.6871036 61.0181143,59.6871036 C61.3063956,59.6871036 61.5505486,59.6307264 61.7505806,59.5179704 C61.9506126,59.4052144 62.1256379,59.2558149 62.2756619,59.0697674 L62.7742685,59.4418605 C62.3742045,60.0310107 61.7741177,60.3255813 60.9739898,60.3255813 L60.9739898,60.3255813 Z M60.8725035,56.2241015 C60.543039,56.2241015 60.2665285,56.33897 60.0429633,56.5687104 C59.8193982,56.7984508 59.6811429,57.1205053 59.6281932,57.5348838 L62.0197399,57.5348838 L62.0197399,57.4756871 C61.9962068,57.0782221 61.8844258,56.7702619 61.6843939,56.551797 C61.484362,56.3333322 61.2137345,56.2241015 60.8725035,56.2241015 L60.8725035,56.2241015 Z M66.7278216,60.2410148 C66.6807553,60.15081 66.6425145,59.9901351 66.613098,59.7589851 C66.2336256,60.1367179 65.7806189,60.3255813 65.2540641,60.3255813 C64.7834006,60.3255813 64.3973153,60.198028 64.0957966,59.9429175 C63.7942779,59.687807 63.6435207,59.3643431 63.6435207,58.9725158 C63.6435207,58.4961216 63.8325186,58.1261464 64.2105202,57.8625793 C64.5885218,57.5990121 65.1202165,57.4672304 65.8056201,57.4672304 L66.5998607,57.4672304 L66.5998607,57.1078224 C66.5998607,56.8343891 66.5145542,56.6166323 66.3439387,56.4545454 C66.1733232,56.2924587 65.9218162,56.2114165 65.5894102,56.2114165 C65.2981871,56.2114165 65.0540342,56.281888 64.8569438,56.422833 C64.6598535,56.563778 64.5613099,56.7343189 64.5613099,56.9344608 L63.7405945,56.9344608 C63.7405945,56.7061299 63.8251657,56.4855543 63.9943103,56.2727273 C64.1634549,56.0599003 64.3929,55.8914735 64.6826521,55.7674418 C64.9724043,55.6434103 65.2908327,55.5813953 65.637947,55.5813953 C66.1880349,55.5813953 66.6189797,55.713177 66.9307942,55.9767442 C67.2426088,56.2403113 67.404397,56.6032394 67.4161635,57.0655391 L67.4161635,59.1712473 C67.4161635,59.5912635 67.472054,59.9252982 67.5838366,60.1733614 L67.5838366,60.2410148 L66.7278216,60.2410148 Z M65.3732002,59.6448203 C65.6291234,59.6448203 65.8718056,59.581396 66.1012541,59.4545455 C66.3307025,59.3276949 66.496903,59.1627917 66.5998607,58.9598308 L66.5998607,58.0211417 L65.9600558,58.0211417 C64.9598959,58.0211417 64.4598236,58.3016181 64.4598236,58.8625793 C64.4598236,59.1078236 64.5451299,59.2995059 64.7157455,59.4376321 C64.886361,59.5757583 65.1055104,59.6448203 65.3732002,59.6448203 L65.3732002,59.6448203 Z M72.1727822,56.3002114 L70.5710637,56.3002114 L70.5710637,60.2410148 L69.7547609,60.2410148 L69.7547609,56.3002114 L68.1839294,56.3002114 L68.1839294,55.6659619 L72.1727822,55.6659619 L72.1727822,56.3002114 Z M77,58.0042283 C77,58.7004967 76.8337994,59.2614495 76.5013934,59.6871036 C76.1689874,60.1127576 75.7189222,60.3255813 75.1511845,60.3255813 C74.57168,60.3255813 74.1157316,60.1494027 73.7833256,59.7970401 L73.7833256,62 L72.9670228,62 L72.9670228,55.6659619 L73.7127264,55.6659619 L73.7524384,56.1733615 C74.0848446,55.7787154 74.5466762,55.5813953 75.1379471,55.5813953 C75.7115681,55.5813953 76.1653103,55.7885815 76.4991872,56.2029599 C76.8330641,56.6173383 77,57.1937948 77,57.9323467 L77,58.0042283 Z M76.1836972,57.9154334 C76.1836972,57.3995746 76.0689747,56.9922495 75.8395263,56.6934461 C75.6100778,56.3946427 75.2953264,56.2452431 74.8952624,56.2452431 C74.4010658,56.2452431 74.030424,56.4552481 73.7833256,56.8752643 L73.7833256,59.0613108 C74.0274823,59.478508 74.4010657,59.6871036 74.9040873,59.6871036 C75.2953264,59.6871036 75.6064008,59.5384088 75.8373201,59.2410148 C76.0682393,58.9436207 76.1836972,58.5017647 76.1836972,57.9154334 L76.1836972,57.9154334 Z"/>
      <polygon points="11.209 34.017 11.209 22.422 .978 28.218"/>
      <polygon points="0 41.478 10.224 35.688 0 29.884"/>
      <polygon points="17.633 16 23.54 26.041 29.44 16"/>
      <polygon points="37.063 27 31.155 16.965 25.249 27"/>
      <polygon points="25.23 28.93 31.132 38.972 37.037 28.93"/>
      <polygon points="32.824 39.949 44.633 39.949 38.723 29.904"/>
      <polygon points=".019 26.548 .021 26.543 .021 26.559 10.245 20.764 10.233 20.757 10.241 20.757 .019 14.956"/>
      <polygon points=".019 11.636 .021 11.632 .021 11.644 10.245 5.851 10.233 5.843 10.241 5.838 .019 .044"/>
      <polygon points="66.785 26.544 66.785 26.56 77.015 20.763 77.006 20.757 77.013 20.757 66.78 14.955 66.78 26.548"/>
      <polygon points="66.785 11.633 66.785 11.645 77.015 5.849 77.006 5.841 77.013 5.838 66.78 .044 66.78 11.637"/>
      <polygon points="53.936 26.041 59.846 16 48.032 16"/>
      <polygon points="46.323 16.965 40.412 27.001 52.23 27.001"/>
      <polygon points="46.346 38.973 52.243 28.93 40.437 28.93"/>
      <polygon points="67.748 28.219 77.974 34.018 77.974 22.421"/>
      <polygon points="66.773 41.478 76.994 35.688 66.773 29.884"/>
    </g>
  </g>
</svg>
